<svg xmlns="http://www.w3.org/2000/svg" viewBox="0 0 64 64" width="64" height="64">
  <!-- Cherry on top -->
  <circle cx="32" cy="14" r="5" fill="#E91E63" />
  <path d="M32 14 Q35 8 38 10" stroke="#E91E63" stroke-width="2" stroke-linecap="round" fill="none" />
  
  <!-- Frosting -->
  <path d="M32 18 C24 18 20 24 24 28 C20 30 20 36 26 36 C24 38 26 42 32 42 C38 42 40 38 38 36 C44 36 44 30 40 28 C44 24 40 18 32 18 Z" fill="#F8BBD0" />
  <path d="M28 24 Q32 22 36 24" stroke="#FFF" stroke-width="1.5" stroke-linecap="round" fill="none" />
  <path d="M26 31 Q32 29 38 31" stroke="#FFF" stroke-width="1.5" stroke-linecap="round" fill="none" />
  
  <!-- Sprinkles -->
  <circle cx="28" cy="27" r="1.2" fill="#FFEB3B" />
  <circle cx="36" cy="26" r="1.2" fill="#4CAF50" />
  <circle cx="32" cy="31" r="1.2" fill="#03A9F4" />
  <circle cx="26" cy="34" r="1.2" fill="#9C27B0" />
  <circle cx="38" cy="34" r="1.2" fill="#FF9800" />
  
  <!-- Cupcake liner/cup -->
  <path d="M21 40 L24 54 C24.5 56 26.5 57 28.5 57 L35.5 57 C37.5 57 39.5 56 40 54 L43 40 Z" fill="#8D6E63" />
  <!-- Pleats -->
  <path d="M26 40 L28 57" stroke="#6D4C41" stroke-width="1.5" />
  <path d="M32 40 L32 57" stroke="#6D4C41" stroke-width="1.5" />
  <path d="M38 40 L36 57" stroke="#6D4C41" stroke-width="1.5" />
</svg>